PathFileType	4	(X/Y/Z)	C:\Users\Public\Documents\Vicon Data\AADs Machine\Fixing_spring_distance_56\90_lb_Spring\90_lb_Static.trc
DataRate	CameraRate	NumFrames	NumMarkers	Units	OrigDataRate	OrigDataStartFrame	OrigNumFrames
100.0	100.0	26	8	mm	100.0	210	314	
Frame#	Time	SpringTop			MMAL			LMAL			Shank			Heel			Foot			Toe			MP5			
		X1	Y1	Z1	X2	Y2	Z2	X3	Y3	Z3	X4	Y4	Z4	X5	Y5	Z5	X6	Y6	Z6	X7	Y7	Z7	X8	Y8	Z8	
210	2.09	-357.51923	144.36877	-610.31128	-289.33624	102.30711	-673.71997	-273.13342	111.30063	-552.57391	-220.93282	275.89551	-627.55371	-357.19858	85.328758	-608.46484	-178.73987	57.384064	-614.33862	-105.49145	38.874218	-630.40601	-165.33736	40.316208	-562.27332
211	2.1	-357.50717	144.42696	-610.2384	-289.34009	102.37617	-673.71472	-273.13995	111.27997	-552.51385	-220.92445	275.91858	-627.47424	-357.25168	85.390427	-608.51813	-178.73984	57.367844	-614.32788	-105.51202	38.909897	-630.38025	-165.30962	40.302414	-562.25513
212	2.11	-357.49738	144.41087	-610.2063	-289.3335	102.43741	-673.69244	-273.12936	111.28722	-552.50507	-220.83844	275.95944	-627.37213	-357.23584	85.385437	-608.47601	-178.76024	57.38332	-614.2793	-105.50565	38.895283	-630.36212	-165.31323	40.291481	-562.23114
213	2.12	-357.48877	144.40649	-610.19061	-289.33328	102.43443	-673.66815	-273.13501	111.25788	-552.4809	-220.85883	275.96121	-627.30182	-357.18561	85.33461	-608.40515	-178.7326	57.386784	-614.2843	-105.51166	38.890404	-630.33331	-165.30295	40.279331	-562.21191
214	2.13	-357.47443	144.43178	-610.19562	-289.30655	102.43964	-673.64215	-273.14441	111.29601	-552.47284	-220.84451	275.97394	-627.24292	-357.19705	85.372383	-608.43402	-178.73756	57.405235	-614.27515	-105.50467	38.936817	-630.34802	-165.33177	40.301056	-562.22156
215	2.14	-357.49124	144.42603	-610.09338	-289.32117	102.46217	-673.61383	-273.11987	111.22195	-552.43488	-220.84053	275.96072	-627.15759	-357.23746	85.373909	-608.34851	-178.74873	57.378029	-614.24738	-105.48708	38.886284	-630.32758	-165.30373	40.252617	-562.18982
216	2.15	-357.461	144.4346	-610.07068	-289.31448	102.49002	-673.57611	-273.13278	111.2445	-552.4306	-220.82962	275.97885	-627.06647	-357.18146	85.356827	-608.40033	-178.73747	57.391636	-614.2251	-105.48334	38.914879	-630.33423	-165.31198	40.241184	-562.19684
217	2.16	-357.4873	144.45395	-610.07245	-289.30859	102.49425	-673.56152	-273.18988	111.22375	-552.38983	-220.84142	275.99673	-627.01154	-357.2576	85.419899	-608.39557	-178.7653	57.383404	-614.23181	-105.48834	38.921326	-630.31946	-165.31529	40.259041	-562.19934
218	2.17	-357.49426	144.40829	-610.06128	-289.31451	102.47787	-673.53662	-273.146	111.21708	-552.35638	-220.873	275.94485	-626.94415	-357.22678	85.381126	-608.35547	-178.72121	57.369614	-614.22156	-105.50802	38.899712	-630.30688	-165.30142	40.216282	-562.1756
219	2.18	-357.47363	144.425	-610.01367	-289.29126	102.50641	-673.51721	-273.13168	111.1776	-552.34595	-220.88037	275.96716	-626.87598	-357.23978	85.376495	-608.34375	-178.73949	57.382214	-614.21313	-105.50816	38.903843	-630.30328	-165.29785	40.212845	-562.17908
220	2.19	-357.50244	144.44313	-609.95349	-289.31586	102.5573	-673.46008	-273.21289	111.17783	-552.30615	-220.88153	276.00131	-626.79047	-357.25104	85.404404	-608.32739	-178.74933	57.411808	-614.17358	-105.51343	38.939205	-630.28912	-165.32642	40.217075	-562.14514
221	2.2	-357.49808	144.42513	-610.00104	-289.30194	102.5235	-673.44733	-273.16245	111.18833	-552.2832	-220.89346	275.9812	-626.7597	-357.26819	85.40818	-608.38861	-178.74733	57.393879	-614.19574	-105.47861	38.919842	-630.29785	-165.32233	40.220757	-562.16547
222	2.21	-357.49451	144.39529	-609.94397	-289.31961	102.50783	-673.43945	-273.12842	111.14501	-552.30347	-220.90732	275.96033	-626.72034	-357.23929	85.380875	-608.33502	-178.73108	57.389931	-614.18463	-105.48224	38.908699	-630.29016	-165.30748	40.20208	-562.16113
223	2.22	-357.48679	144.43321	-609.85596	-289.31421	102.58623	-673.39142	-273.21051	111.1184	-552.24695	-220.9388	276.0069	-626.66913	-357.27228	85.409943	-608.32141	-178.73903	57.425457	-614.1582	-105.48796	38.947826	-630.27173	-165.32207	40.203339	-562.12915
224	2.23	-357.53662	144.43517	-609.88031	-289.33096	102.58568	-673.39026	-273.1546	111.18642	-552.24408	-220.93361	276.01913	-626.63763	-357.26797	85.402107	-608.29767	-178.74828	57.404953	-614.16016	-105.48455	38.935436	-630.26105	-165.32011	40.218681	-562.13544
225	2.24	-357.5188	144.42566	-609.8869	-289.3396	102.53598	-673.38391	-273.15924	111.1441	-552.25702	-220.93431	276.00366	-626.63141	-357.26544	85.367332	-608.34143	-178.74796	57.385628	-614.18109	-105.49498	38.929981	-630.27197	-165.31982	40.200077	-562.13611
226	2.25	-357.47791	144.4216	-609.87939	-289.31412	102.56313	-673.37921	-273.185	111.13091	-552.2309	-220.93948	276.00574	-626.60645	-357.26199	85.365768	-608.32953	-178.73299	57.42012	-614.16254	-105.48268	38.938572	-630.27722	-165.31474	40.213001	-562.14185
227	2.26	-357.50439	144.44307	-609.85278	-289.3176	102.59981	-673.37689	-273.19492	111.13432	-552.23096	-220.92557	276.02701	-626.60913	-357.26236	85.402832	-608.32043	-178.73727	57.412979	-614.15173	-105.50198	38.965	-630.2597	-165.31255	40.226425	-562.13214
228	2.27	-357.49551	144.40683	-609.92023	-289.32034	102.52929	-673.38	-273.16229	111.15306	-552.22491	-220.92772	275.98694	-626.61053	-357.289	85.37957	-608.33783	-178.72525	57.409458	-614.15912	-105.50642	38.945793	-630.27264	-165.31329	40.192585	-562.13324
229	2.28	-357.5029	144.39931	-609.88898	-289.32953	102.52763	-673.41003	-273.13934	111.1457	-552.25702	-220.88126	275.98129	-626.6059	-357.24088	85.359001	-608.29523	-178.7233	57.391251	-614.17542	-105.49912	38.932941	-630.26965	-165.306	40.203453	-562.13794
230	2.29	-357.4689	144.46323	-609.82898	-289.30167	102.5602	-673.36981	-273.18829	111.13301	-552.21936	-220.88646	275.99783	-626.59778	-357.2626	85.402252	-608.31573	-178.72513	57.421028	-614.16461	-105.51208	38.943813	-630.26135	-165.31128	40.207363	-562.13806
231	2.3	-357.49704	144.44116	-609.89124	-289.31195	102.55847	-673.37531	-273.15372	111.17084	-552.22736	-220.88118	276.01343	-626.612	-357.26929	85.407143	-608.29651	-178.72978	57.426834	-614.1593	-105.50059	38.948792	-630.27179	-165.30219	40.216045	-562.12744
232	2.31	-357.49142	144.42564	-609.89441	-289.32355	102.53844	-673.38727	-273.16904	111.1385	-552.26172	-220.88448	275.98221	-626.60583	-357.25024	85.390106	-608.31116	-178.71968	57.399361	-614.1651	-105.50459	38.922874	-630.24536	-165.32185	40.176769	-562.13251
233	2.32	-357.46747	144.42412	-609.87238	-289.30606	102.53848	-673.38422	-273.1821	111.14027	-552.25714	-220.86623	275.95822	-626.64056	-357.24451	85.402832	-608.28375	-178.73723	57.388084	-614.15967	-105.47671	38.933552	-630.26074	-165.30022	40.188988	-562.13379
234	2.33	-357.48557	144.45154	-609.88446	-289.293	102.55833	-673.40723	-273.15308	111.15565	-552.25684	-220.88048	275.99619	-626.64954	-357.24951	85.433578	-608.336	-178.75221	57.407452	-614.17761	-105.49859	38.941883	-630.27063	-165.31465	40.216595	-562.13831
235	2.34	-357.46753	144.42816	-609.91302	-289.29767	102.56556	-673.43347	-273.15546	111.17442	-552.26831	-220.882	275.99728	-626.66937	-357.2627	85.39518	-608.32397	-178.72925	57.390236	-614.16229	-105.50211	38.921406	-630.2533	-165.30313	40.192081	-562.14673
